<?xml version="1.0" encoding="utf-8"?>
<!-- Generator: Adobe Illustrator 26.1.0, SVG Export Plug-In . SVG Version: 6.00 Build 0)  -->
<svg version="1.1" id="Capa_1" xmlns="http://www.w3.org/2000/svg" xmlns:xlink="http://www.w3.org/1999/xlink" x="0px" y="0px"
	 viewBox="0 0 90.62 72.66" style="enable-background:new 0 0 90.62 72.66;" xml:space="preserve">
<style type="text/css">
	.st0{fill:#00FF6F;}
</style>
<g>
	<path class="st0" d="M70.32,40.23l-50.01,0c-6.25,0-11.33,5.08-11.33,11.33c0,6.25,5.08,11.33,11.33,11.33l50.01,0
		c6.25,0,11.33-5.08,11.33-11.33C81.65,45.31,76.56,40.23,70.32,40.23z M70.32,54.96l-50.01,0c-1.87,0-3.39-1.52-3.39-3.39
		c0-1.87,1.52-3.39,3.39-3.39l50.01,0c1.87,0,3.39,1.52,3.39,3.39C73.71,53.43,72.19,54.96,70.32,54.96z"/>
	<path class="st0" d="M70.32,8.59l-50.01,0c-6.25,0-11.33,5.08-11.33,11.33c0,6.25,5.08,11.33,11.33,11.33l50.01,0
		c6.25,0,11.33-5.08,11.33-11.33C81.65,13.67,76.56,8.59,70.32,8.59z M70.32,23.31l-50.01,0c-1.87,0-3.39-1.52-3.39-3.39
		c0-1.87,1.52-3.39,3.39-3.39l50.01,0c1.87,0,3.39,1.52,3.39,3.39C73.71,21.79,72.19,23.31,70.32,23.31z"/>
</g>
</svg>
