<svg xmlns="http://www.w3.org/2000/svg" xmlns:xlink="http://www.w3.org/1999/xlink" width="150" zoomAndPan="magnify" viewBox="0 0 112.5 112.499997" height="150" preserveAspectRatio="xMidYMid meet" version="1.0"><defs><clipPath id="4031f1dcd6"><path d="M 17 11 L 95 11 L 95 98 L 17 98 Z M 17 11 " clip-rule="nonzero"/></clipPath><clipPath id="0aa632fdbf"><path d="M 63.566406 -21.644531 L 133.46875 61.664062 L 49.015625 132.53125 L -20.890625 49.222656 Z M 63.566406 -21.644531 " clip-rule="nonzero"/></clipPath><clipPath id="3a35bac020"><path d="M 63.566406 -21.644531 L 133.46875 61.664062 L 49.015625 132.53125 L -20.890625 49.222656 Z M 63.566406 -21.644531 " clip-rule="nonzero"/></clipPath><clipPath id="18f0b65de6"><path d="M 63.566406 -21.644531 L 133.46875 61.664062 L 49.015625 132.53125 L -20.890625 49.222656 Z M 63.566406 -21.644531 " clip-rule="nonzero"/></clipPath><clipPath id="83b72cb55a"><path d="M 12 15 L 99 15 L 99 94 L 12 94 Z M 12 15 " clip-rule="nonzero"/></clipPath><clipPath id="fad9976f93"><path d="M 63.566406 -21.644531 L 133.46875 61.664062 L 49.015625 132.53125 L -20.890625 49.222656 Z M 63.566406 -21.644531 " clip-rule="nonzero"/></clipPath><clipPath id="e81eeef316"><path d="M 63.566406 -21.644531 L 133.46875 61.664062 L 49.015625 132.53125 L -20.890625 49.222656 Z M 63.566406 -21.644531 " clip-rule="nonzero"/></clipPath><clipPath id="a0318f2f0e"><path d="M 63.566406 -21.644531 L 133.46875 61.664062 L 49.015625 132.53125 L -20.890625 49.222656 Z M 63.566406 -21.644531 " clip-rule="nonzero"/></clipPath></defs><g clip-path="url(#4031f1dcd6)"><g clip-path="url(#0aa632fdbf)"><g clip-path="url(#3a35bac020)"><g clip-path="url(#18f0b65de6)"><path fill="#00e9e7" d="M 90.75 71.257812 L 45.355469 17.15625 C 39.683594 10.398438 29.574219 9.515625 22.804688 15.195312 C 16.039062 20.871094 15.148438 30.984375 20.820312 37.746094 L 66.21875 91.84375 C 71.890625 98.605469 82 99.484375 88.769531 93.808594 C 95.535156 88.128906 96.425781 78.019531 90.75 71.257812 Z M 74.804688 84.640625 L 29.410156 30.539062 C 27.710938 28.515625 27.976562 25.492188 30 23.792969 C 32.027344 22.09375 35.050781 22.359375 36.75 24.378906 L 82.144531 78.480469 C 83.839844 80.503906 83.574219 83.527344 81.550781 85.226562 C 79.546875 86.925781 76.5 86.664062 74.804688 84.640625 Z M 74.804688 84.640625 " fill-opacity="1" fill-rule="nonzero"/></g></g></g></g><g clip-path="url(#83b72cb55a)"><g clip-path="url(#fad9976f93)"><g clip-path="url(#e81eeef316)"><g clip-path="url(#a0318f2f0e)"><path fill="#00e9e7" d="M 72.574219 19.535156 L 18.429688 64.972656 C 11.660156 70.648438 10.773438 80.761719 16.445312 87.523438 C 22.117188 94.28125 32.230469 95.164062 38.996094 89.484375 L 93.144531 44.050781 C 99.910156 38.371094 100.800781 28.261719 95.128906 21.5 C 89.453125 14.738281 79.34375 13.859375 72.574219 19.535156 Z M 85.9375 35.460938 L 31.789062 80.894531 C 29.765625 82.59375 26.738281 82.332031 25.042969 80.308594 C 23.34375 78.285156 23.609375 75.261719 25.636719 73.5625 L 79.78125 28.125 C 81.808594 26.425781 84.832031 26.691406 86.53125 28.714844 C 88.238281 30.726562 87.960938 33.761719 85.9375 35.460938 Z M 85.9375 35.460938 " fill-opacity="1" fill-rule="nonzero"/></g></g></g></g></svg>